<svg width="620" height="496" viewBox="0 0 620 496" fill="none" xmlns="http://www.w3.org/2000/svg">
<path d="M483.088 361.964H270.416L342.95 392.949H404.216L483.088 361.964Z" fill="white"/>
<path fill-rule="evenodd" clip-rule="evenodd" d="M98.1591 0H17.6545C11.0635 0.941574 0 8.37284 0 22.5978C0 36.7214 12.4759 40.9585 17.6545 42.3708H64.9686C67.0872 42.1354 72.4541 42.2296 76.9737 44.4894C81.4932 46.7491 84.0355 52.4927 84.7417 55.0821L184.313 311.426C184.38 311.592 184.484 311.911 184.627 312.344C185.489 314.968 187.739 321.813 191.375 324.843C195.612 328.374 201.732 328.374 202.674 328.374L532.46 329.08C536.697 328.139 545.877 325.69 548.702 323.431C551.527 321.171 554.116 316.369 555.058 314.25L618.614 110.87C619.791 106.633 621.015 96.6055 616.495 90.3911C611.976 84.1767 601.43 81.6815 596.722 81.2108C473.119 80.7994 234.517 81.1068 169.151 81.1911C159.702 81.2032 153.873 81.2108 152.535 81.2108C149.115 81.2108 142.169 78.3142 136.999 68.4995C132.056 54.3759 123.898 31.0721 119.344 19.0669C113.13 2.68349 102.161 0.470787 98.1591 0ZM416.646 219.622H319.193L324.843 283.885H412.409L416.646 219.622ZM313.544 127.819H423.708L420.177 187.844C419.942 189.492 419.047 193.211 417.352 194.906C415.658 196.601 411.938 198.437 410.291 199.143H329.08C329.08 199.143 324.137 198.437 320.606 194.906C317.21 191.51 317.075 187.844 317.075 187.844L313.544 127.819ZM289.534 127.112H161.009C169.012 148.769 185.584 192.787 187.844 195.612C190.104 198.437 194.906 199.143 197.024 199.143H297.302L289.534 127.112ZM195.612 219.622H297.302L303.657 284.591H227.8C226.197 284.591 222.564 284.037 220.855 281.822C219.145 279.606 201.666 236.607 195.612 219.622ZM446.306 126.406H567.769C564.615 134.94 561.315 146.618 558.128 157.895L558.127 157.898L558.127 157.899C553.227 175.239 548.594 191.632 545.171 194.2C539.522 198.437 533.872 198.437 531.754 198.437H440.656L446.306 126.406ZM538.109 218.21H438.24L433.595 284.591H508.497C510.239 284.591 514.884 284.591 519.529 280.686C522.343 278.32 526.153 263.212 530.182 247.232C532.802 236.838 535.516 226.075 538.109 218.21Z" fill="white"/>
<path d="M203.081 435.625C198.187 413.186 212.332 402.866 220.806 400.187C211.045 398.686 192.65 403.689 178.869 421.822C165.489 439.427 172.16 476.906 205.951 491.055C232.983 502.375 262.917 491.261 274.642 487.313L482.17 404.866C482.17 404.866 497.297 395.062 513.079 401.4C528.861 407.738 535.84 421.797 532.556 435.625C528.051 454.598 513.079 458.374 513.079 458.374C513.079 458.374 539.334 462.617 552.966 444.917C573.694 418.003 566.917 384.237 530.962 367.378C502.26 353.921 472.082 372.109 458.571 377.952C445.06 383.794 250.979 456.789 241.647 459.009C230.705 461.613 208.551 460.708 203.081 435.625Z" fill="white"/>
<path d="M201.519 394.776C184.17 399.928 173.568 415.302 167.602 426.315C167.602 407.528 174.002 394.099 181.672 385.354C189.343 376.608 201.807 363.328 228.973 362.032C250.706 360.996 278.867 371.118 278.867 371.118C278.867 371.118 436.61 442.948 455.624 450.694C480.28 460.739 493.321 465.688 520.591 466.721C543.65 467.595 563.368 452.102 569.724 432.315C571.626 448.562 560.314 475.984 531.678 489.977C503.042 503.97 453.511 484.544 438.723 478.158C407.737 464.778 264.079 401.681 252.811 397.174C233.823 389.579 215.467 390.635 201.519 394.776Z" fill="white"/>
<path d="M243.657 325.345H192.249L204.925 359.147C209.385 357.504 220.558 355.626 229.572 355.626C238.586 355.626 248.821 356.565 252.811 357.739C252.107 356.8 248.304 352.809 245.769 346.472C243.234 340.134 243.657 330.744 243.657 325.345Z" fill="white"/>
</svg>
